HIERARCHY
ROOT root
{
	OFFSET 0.000000 0.000000 0.000000
	CHANNELS 6 Xposition Yposition Zposition Zrotation Yrotation Xrotation
	JOINT lhip
	{
		OFFSET 0.058581 -0.082280 -0.017664
		CHANNELS 3 Zrotation Yrotation Xrotation
		JOINT lknee
		{
			OFFSET 0.043451 -0.386469 0.008037
			CHANNELS 3 Zrotation Yrotation Xrotation
			JOINT lankle
			{
				OFFSET -0.014790 -0.426874 -0.037428
				CHANNELS 3 Zrotation Yrotation Xrotation
				JOINT ltoe
				{
					OFFSET 0.041054 -0.060286 0.122042
					CHANNELS 3 Zrotation Yrotation Xrotation
					End Site
					{
						OFFSET 0.000000 0.000000 0.000000
					}
				}
			}
		}
	}
	JOINT rhip
	{
		OFFSET -0.060310 -0.090513 -0.013543
		CHANNELS 3 Zrotation Yrotation Xrotation
		JOINT rknee
		{
			OFFSET -0.043257 -0.383688 -0.004843
			CHANNELS 3 Zrotation Yrotation Xrotation
			JOINT rankle
			{
				OFFSET 0.019056 -0.420046 -0.034562
				CHANNELS 3 Zrotation Yrotation Xrotation
				JOINT rtoe
				{
					OFFSET -0.034840 -0.062106 0.130323
					CHANNELS 3 Zrotation Yrotation Xrotation
					End Site
					{
						OFFSET 0.000000 0.000000 0.000000
					}
				}
			}
		}
	}
	JOINT lowerback
	{
		OFFSET 0.004439 0.124404 -0.038385
		CHANNELS 3 Zrotation Yrotation Xrotation
		JOINT upperback
		{
			OFFSET 0.004488 0.137956 0.026820
			CHANNELS 3 Zrotation Yrotation Xrotation
			JOINT chest
			{
				OFFSET -0.002265 0.056032 0.002855
				CHANNELS 3 Zrotation Yrotation Xrotation
				JOINT lowerneck
				{
					OFFSET -0.013390 0.211636 -0.033468
					CHANNELS 3 Zrotation Yrotation Xrotation
					JOINT upperneck
					{
						OFFSET 0.010113 0.088937 0.050410
						CHANNELS 3 Zrotation Yrotation Xrotation
						End Site
						{
							OFFSET 0.000000 0.000000 0.000000
						}
					}
				}
				JOINT lclavicle
				{
					OFFSET 0.071702 0.114000 -0.018898
					CHANNELS 3 Zrotation Yrotation Xrotation
					JOINT lshoulder
					{
						OFFSET 0.122921 0.045205 -0.019046
						CHANNELS 3 Zrotation Yrotation Xrotation
						JOINT lelbow
						{
							OFFSET 0.255332 -0.015649 -0.022946
							CHANNELS 3 Zrotation Yrotation Xrotation
							JOINT lwrist
							{
								OFFSET 0.265709 0.012698 -0.007375
								CHANNELS 3 Zrotation Yrotation Xrotation
								End Site
								{
									OFFSET 0.000000 0.000000 0.000000
								}
							}
						}
					}
				}
				JOINT rclavicle
				{
					OFFSET -0.082954 0.112472 -0.023707
					CHANNELS 3 Zrotation Yrotation Xrotation
					JOINT rshoulder
					{
						OFFSET -0.113228 0.046853 -0.008472
						CHANNELS 3 Zrotation Yrotation Xrotation
						JOINT relbow
						{
							OFFSET -0.260127 -0.014369 -0.031269
							CHANNELS 3 Zrotation Yrotation Xrotation
							JOINT rwrist
							{
								OFFSET -0.269108 0.006794 -0.006027
								CHANNELS 3 Zrotation Yrotation Xrotation
								End Site
								{
									OFFSET 0.000000 0.000000 0.000000
								}
							}
						}
					}
				}
			}
		}
	}
}
MOTION
Frames: 8
Frame Time: 0.033333
-0.209438 0.825737 0.962289 0.364420 -3.487124 93.032416 12.199583 -7.804267 -40.216666 -3.500268 -9.378108 45.887089 -8.266174 2.565026 12.235316 0.000000 -0.000000 0.000000 -1.258411 -0.677093 -24.594781 -3.179926 -4.762693 34.599085 1.460005 -5.404835 -17.926731 0.000000 -0.000000 0.000000 -2.740233 4.076674 50.694935 -10.374681 -0.473964 5.586840 -2.729954 -0.514729 -1.760223 -22.637489 15.385196 -3.777614 -3.493590 18.037432 -17.349669 -23.872026 -3.183582 0.173851 -40.199864 -0.413863 4.594189 82.519320 -67.708116 -59.824379 37.358460 -2.978962 -12.115561 15.373664 3.958291 1.204404 43.483497 -10.447106 -0.673339 -60.647094 58.453162 -51.456945 -19.314569 5.926603 -17.517733 
-0.211338 0.831399 0.956678 0.707151 -3.871970 92.391273 11.314789 -7.561241 -38.354225 -3.319487 -9.994442 43.295386 -5.925269 2.779028 9.235428 0.000000 -0.000000 0.000000 -1.519006 -0.703171 -25.528019 -3.257396 -5.030595 36.686990 1.329360 -6.134567 -18.087618 0.000000 -0.000000 0.000000 -2.471637 3.516351 50.975535 -9.866270 -0.061077 5.526719 -2.421019 -0.335374 -1.721946 -22.015998 14.773879 -1.848791 -3.672619 17.147981 -17.742221 -23.632333 -1.838253 0.189254 -39.044706 1.209938 3.868655 82.895488 -66.485155 -60.757932 37.715571 -3.117913 -12.313104 14.268801 3.007045 0.985140 38.640779 -11.767534 -1.853349 -65.751053 58.257180 -56.884263 -19.700173 5.384197 -17.369021 
-0.212680 0.840418 0.952436 1.521194 -4.875987 91.988614 10.223848 -7.569897 -38.531543 -3.720352 -10.127949 43.517460 -4.679627 2.703544 6.440211 0.000000 -0.000000 0.000000 -2.686071 -1.398177 -27.081863 -2.872697 -4.887213 38.936099 1.604784 -6.916575 -17.611148 0.000000 -0.000000 0.000000 -1.922176 2.965289 51.087622 -9.496110 -0.261469 6.009789 -2.486709 -0.076576 -1.299986 -21.175234 13.059163 -1.637199 -3.296589 16.018582 -16.285807 -22.053067 -1.610572 -0.381730 -36.648957 1.553939 2.654805 85.104094 -65.551227 -63.638053 36.742608 -4.096077 -12.100260 12.403182 2.577166 -0.246306 33.943380 -12.811208 -3.654638 -72.920138 56.704100 -63.888403 -17.044346 6.828451 -15.388810 
-0.211426 0.850206 0.948194 2.841896 -5.420845 92.451929 10.372631 -8.633071 -40.443980 -4.803598 -8.655744 45.874497 -2.735109 2.974663 2.320357 0.000000 -0.000000 0.000000 -3.974172 -1.951398 -29.624701 -2.659544 -5.940041 41.312297 2.118517 -7.573873 -16.926116 0.000000 -0.000000 0.000000 -0.851826 2.119563 51.211934 -8.624646 -0.477941 4.442083 -2.232226 -0.041663 -1.223810 -20.647872 11.598985 1.986241 -3.545397 15.515062 -17.189695 -21.016692 -1.740014 0.009071 -33.650651 1.566399 1.899562 90.059633 -64.210703 -68.773686 35.685790 -4.149645 -11.433400 11.111965 2.665374 0.363913 26.542527 -12.976732 -5.631264 -78.320234 55.205739 -69.861964 -16.874972 7.046326 -14.717417 
-0.208741 0.860900 0.944764 2.913440 -5.453662 92.177465 10.028303 -8.128107 -41.321317 -6.102872 -7.265842 50.966794 -1.712903 3.312497 -2.978522 0.000000 -0.000000 0.000000 -4.164196 -1.991619 -31.166862 -2.057368 -4.866019 42.861903 2.061357 -9.053223 -15.706599 0.000000 -0.000000 0.000000 0.090597 1.241801 50.907416 -7.961920 -0.318491 5.152915 -1.856703 0.013795 -1.189379 -21.461292 9.461871 2.814474 -4.163759 15.947632 -17.697365 -19.973290 -2.794457 -0.344853 -30.379490 2.125617 -0.340974 96.905195 -62.426910 -76.077951 34.074288 -4.496201 -10.138086 9.527314 5.152770 2.453764 18.673747 -12.376320 -9.354842 -83.020730 52.150756 -75.840310 -14.257352 7.909073 -11.972730 
-0.204215 0.872493 0.940139 2.207525 -5.381379 91.917403 9.195572 -7.174884 -41.917228 -6.313264 -4.941990 57.634325 -1.057492 3.591504 -5.972729 0.000000 -0.000000 0.000000 -4.365552 -1.280235 -32.740097 -2.031750 -3.975635 44.299421 1.647348 -9.287546 -14.326919 0.000000 -0.000000 0.000000 0.980130 0.474166 51.420020 -7.425415 0.173589 4.086052 -1.991702 0.210767 -0.712209 -20.756484 7.990786 3.355333 -4.305882 15.372920 -15.926433 -18.290702 -3.401211 -1.630203 -27.405669 1.448123 -0.916537 101.387656 -60.374152 -80.661472 35.182453 -5.408404 -8.506779 6.175951 6.707714 2.203637 13.748301 -10.367464 -9.380764 -85.883792 49.991724 -79.094305 -19.512545 8.758446 -10.946898 
-0.198888 0.884441 0.936560 0.634396 -5.470027 92.061808 8.242363 -5.930788 -41.749572 -6.817392 -2.466278 64.002011 -0.395168 3.356748 -8.244976 0.000000 -0.000000 0.000000 -4.643684 -0.421543 -34.710680 -2.215933 -3.094861 45.424341 1.950653 -8.740697 -12.951347 0.000000 -0.000000 0.000000 1.131695 0.434660 51.682317 -7.321343 0.726198 2.676823 -1.913043 0.798714 -0.159540 -19.931866 6.688609 4.322852 -3.463374 14.626265 -14.523821 -15.825674 -4.194790 -2.644442 -25.734544 0.612248 -2.113817 106.186603 -58.655652 -84.678608 35.234669 -6.532474 -6.728928 3.451888 8.002761 1.417857 11.256869 -9.096030 -10.182605 -90.904168 50.415703 -82.784496 -19.275941 9.437079 -11.060720 
-0.192917 0.896054 0.934434 -0.371912 -5.412279 92.404837 7.386555 -5.060914 -40.900521 -8.178782 -0.228032 68.734678 -0.806690 1.575589 -9.905718 0.000000 -0.000000 0.000000 -4.845320 0.485357 -36.306150 -2.552242 -2.492070 45.608097 2.126473 -8.321877 -11.647239 0.000000 -0.000000 0.000000 1.092143 0.596214 51.477960 -6.730677 0.928477 2.268372 -1.598456 0.979942 -0.305178 -19.027584 5.570499 5.192126 -2.417991 13.765238 -14.113452 -13.729209 -5.070759 -3.184453 -25.032715 -0.238800 -3.698908 111.627058 -56.557956 -88.962375 33.390102 -7.738174 -5.850642 1.645952 8.777433 1.237924 12.050722 -8.550195 -10.443218 -98.109624 50.503885 -87.049987 -16.054111 9.777353 -11.195584 
